<?xml version="1.0" encoding="UTF-8" standalone="no"?>
<svg
   version="1.1"
   viewBox="0 0 768 768"
   width="768"
   height="768"
   id="svg141"
   sodipodi:docname="icon.svg"
   inkscape:export-filename="../../Desktop/iwlby.png"
   inkscape:export-xdpi="64"
   inkscape:export-ydpi="64"
   inkscape:version="1.2.2 (b0a84865, 2022-12-01)"
   xmlns:inkscape="http://www.inkscape.org/namespaces/inkscape"
   xmlns:sodipodi="http://sodipodi.sourceforge.net/DTD/sodipodi-0.dtd"
   xmlns="http://www.w3.org/2000/svg"
   xmlns:svg="http://www.w3.org/2000/svg"
   xmlns:rdf="http://www.w3.org/1999/02/22-rdf-syntax-ns#"
   xmlns:cc="http://creativecommons.org/ns#"
   xmlns:dc="http://purl.org/dc/elements/1.1/"><sodipodi:namedview
   id="namedview165"
   pagecolor="#ffffff"
   bordercolor="#000000"
   borderopacity="0.25"
   inkscape:showpageshadow="2"
   inkscape:pageopacity="0.0"
   inkscape:pagecheckerboard="0"
   inkscape:deskcolor="#d1d1d1"
   showgrid="false"
   inkscape:zoom="0.5090481"
   inkscape:cx="424.3214"
   inkscape:cy="315.29437"
   inkscape:window-width="1531"
   inkscape:window-height="858"
   inkscape:window-x="1"
   inkscape:window-y="43"
   inkscape:window-maximized="0"
   inkscape:current-layer="svg141" />
<defs
   id="defs145" />
<style
   id="style132">svg </style>




&quot;
<metadata
   id="metadata1">
Created by https://svgstud.io and licensed under CC-BY-SA 4.0 license. Please attribute https://svgstud.io
</metadata>
<metadata
   id="prompt">
simple flat shaded owl character, fun playful and warm
</metadata>
<metadata
   id="version">
7
</metadata>
<metadata
   id="metadata2">
  <rdf:RDF>
    <cc:Work
       rdf:about="">
      <cc:license
         rdf:resource="http://creativecommons.org/licenses/by-sa/4.0/" />
      <dc:creator>
        <cc:Agent>
          <dc:title>https://svgstud.io</dc:title>
        </cc:Agent>
      </dc:creator>
    </cc:Work>
    <cc:License
       rdf:about="http://creativecommons.org/licenses/by-sa/4.0/">
      <cc:permits
         rdf:resource="http://creativecommons.org/ns#Reproduction" />
      <cc:permits
         rdf:resource="http://creativecommons.org/ns#Distribution" />
      <cc:requires
         rdf:resource="http://creativecommons.org/ns#Notice" />
      <cc:requires
         rdf:resource="http://creativecommons.org/ns#Attribution" />
      <cc:permits
         rdf:resource="http://creativecommons.org/ns#DerivativeWorks" />
      <cc:requires
         rdf:resource="http://creativecommons.org/ns#ShareAlike" />
    </cc:License>
  </rdf:RDF>
</metadata>
<metadata
   id="uid">
405f90eaef92161534f7b7a890fe2b381b67cd809bd959b26db2f5fa8c051c8a
</metadata>
<g
   id="layer8"
   transform="translate(-221.44972,-351.26508)">
  <path
     style="fill:#fea75f"
     id="rect1001"
     width="13.281315"
     height="70.776443"
     x="314.00989"
     y="644.87469"
     class="UnoptimicedTransforms"
     d="m 314.00989,644.87469 h 13.28131 v 70.77645 h -13.28131 z m 118.57589,0.33095 -13.2811,-0.0741 -0.39508,70.77534 13.28111,0.0741 z"
     transform="translate(228.16651,304.12015)" />
  <path
     style="fill:#fea75f"
     id="rect1113"
     width="75.220497"
     height="34.084839"
     x="294.36514"
     y="682.21265"
     ry="17.042406"
     class="UnoptimicedTransforms"
     d="m 311.40755,682.21265 h 41.13568 c 9.4415,0 17.04241,7.60091 17.04241,17.0424 v 3e-5 c 0,9.44149 -7.60091,17.04241 -17.04241,17.04241 h -41.13568 c -9.44149,0 -17.04241,-7.60092 -17.04241,-17.04241 v -3e-5 c 0,-9.44149 7.60092,-17.0424 17.04241,-17.0424 z m 144.53486,0.4034 -41.13505,-0.22962 c -9.44134,-0.0527 -17.08457,7.50566 -17.13727,16.94701 l 0,2e-5 c -0.0527,9.44135 7.50566,17.08457 16.94701,17.13728 l 41.13504,0.22962 c 9.44135,0.0527 17.08457,-7.50567 17.13728,-16.94701 l 0,-3e-5 c 0.0527,-9.44135 -7.50567,-17.08457 -16.94701,-17.13727 z"
     transform="translate(217.63162,323.26569)" />
</g>
<g
   id="layer4"
   transform="translate(-221.44972,-351.26508)">
  <path
     id="path628"
     style="fill:#90dfea;fill-opacity:1;stroke-width:1.11785"
     d="m 504.39258,139.66016 c -29.73982,0.65964 -70.35894,19.93901 -120.41016,20.42187 -66.73641,-0.46834 -116.79398,-34.39775 -146.50586,-13.10351 -59.20247,42.42987 -59.66797,120.48631 -59.66797,208.63867 0,132.67612 8.44864,295.60396 206.35743,295.01758 0.15358,-0.003 0.30743,-0.006 0.46093,-0.01 0.15352,0.003 0.30735,0.005 0.46094,0.008 197.90965,0.066 205.93089,-162.88098 205.58203,-295.55664 -0.23178,-88.15205 -0.90297,-166.20836 -60.2168,-208.48242 -7.44194,-5.30401 -16.14727,-7.15348 -26.06054,-6.93359 z"
     class="UnoptimicedTransforms"
     transform="translate(217.63162,323.26569)"
     sodipodi:nodetypes="scsscccssss" />
  <path
     style="fill:#90dfea;fill-opacity:1"
     d="m 42.3975,293.65491 c 0,0 3.517983,-184.16524 9.573763,-220.499877 6.05577,-36.334637 157.289967,61.057947 157.289967,61.057947 m 245.29593,159.44193 c 0,0 -2.94166,-153.99486 -8.0755,-208.132638 -0.48043,-5.066236 -0.98005,-9.257993 -1.49826,-12.367239 -6.05578,-36.334635 -157.28997,61.057947 -157.28997,61.057947"
     id="path790"
     transform="translate(353.04271,347.40812)"
     class="UnoptimicedTransforms"
     sodipodi:nodetypes="csccssc" />
</g>
<g
   id="layer6"
   transform="translate(-221.44972,-351.26508)">
  <path
     style="fill:#13889b"
     d="m 177.80859,317.79735 c 0,0 61.24467,6.60542 108.48528,58.85494 47.13972,52.13793 44.39995,217.9788 -14.01061,249.04091 -62.55715,2.33524 -87.56776,-109.69216 -94.47467,-151.58526 -7.81603,-48.00004 0,-156.31059 0,-156.31059 z m 413.87512,0 c 0,0 -61.24467,6.60542 -108.48528,58.85494 -47.13972,52.13793 -44.39995,217.9788 14.01061,249.04091 62.55715,2.33524 87.56776,-109.69216 94.47467,-151.58526 7.81603,-48.00004 0,-156.31059 0,-156.31059 z"
     id="path945"
     class="UnoptimicedTransforms"
     transform="translate(217.63162,323.26569)" />
</g>
<path
   id="path734"
   style="fill:#abdee5;stroke:none;stroke-width:1;stroke-dasharray:none;stroke-opacity:1"
   d="m 260.08594,158.44922 c -7.97144,2.33242 -11.65785,15.71821 -7.00586,37.74219 -14.03979,-16.64545 -27.19216,-17.19667 -32.1211,-14.55274 -6.46186,3.46621 1.50627,14.12129 8.45313,37.50195 -26.89971,1.42627 -15.40556,48.69829 -12.71094,73.37305 3.62364,33.18183 8.84854,76.36881 37.98633,92.65235 38.48342,21.50629 91.10583,-21.05622 130.57812,-21.50586 39.4723,0.44964 92.09276,43.01215 130.57618,21.50586 29.13779,-16.28354 34.36268,-59.47052 37.98632,-92.65235 2.69462,-24.67476 14.18878,-71.94678 -12.71093,-73.37305 6.94686,-23.38066 14.91498,-34.03574 8.45312,-37.50195 -4.92894,-2.64393 -18.0813,-2.09271 -32.12109,14.55274 4.65199,-22.02398 0.96558,-35.40977 -7.00586,-37.74219 -7.97134,-2.33239 -20.4039,39.58179 -125.17774,41.8418 -104.77383,-2.26001 -117.20834,-44.17419 -125.17968,-41.8418 z"
   class="UnoptimicedTransforms"
   transform="translate(-3.8180981,-27.999394)"
   sodipodi:nodetypes="scscsscsscscscs" />
<g
   id="layer5"
   transform="translate(-221.44972,-351.26508)">
  <g
     id="layer2">
    <path
       id="path1061"
       style="fill:#fdf6f6;fill-opacity:1;stroke-width:0.7969"
       d="m 558.07697,609.586 c 0,39.69369 -4.98383,71.87179 -51.0118,71.87179 -46.02797,0 -51.01181,-32.1781 -51.01181,-71.87179 0,-39.69369 7.68913,-71.87179 51.01181,-71.87179 43.32267,0 51.0118,32.1781 51.0118,71.87179 z" />
    <path
       id="path8758"
       style="fill:#000000;fill-opacity:1;stroke-width:0.539545"
       d="m 540.64006,609.586 c 0,27.64559 -3.28026,50.05677 -33.57489,50.05677 -30.29463,0 -33.57489,-22.41118 -33.57489,-50.05677 0,-27.64559 5.06082,-50.05677 33.57489,-50.05677 28.51407,0 33.57489,22.41118 33.57489,50.05677 z" />
    <path
       id="path8756"
       style="fill:#fdf6f6;fill-opacity:1;stroke-width:0.278121"
       d="m 540.64006,581.34425 c 0,12.0481 -1.99998,21.81502 -20.47077,21.81502 -18.47078,0 -20.47077,-9.76692 -20.47077,-21.81502 0,-12.0481 3.08561,-21.81502 20.47077,-21.81502 17.38516,0 20.47077,9.76692 20.47077,21.81502 z" />
  </g>
  <g
     id="layer3">
    <path
       id="path8873"
       style="fill:#fdf6f6;fill-opacity:1;stroke-width:0.7969"
       d="m 747.81426,612.60469 c 0,39.69369 -4.98383,71.87179 -51.0118,71.87179 -46.02797,0 -51.01181,-32.1781 -51.01181,-71.87179 0,-39.69369 7.68913,-71.87179 51.01181,-71.87179 43.32267,0 51.0118,32.1781 51.0118,71.87179 z" />
    <path
       id="path8875"
       style="fill:#000000;fill-opacity:1;stroke-width:0.539545"
       d="m 730.37735,612.60469 c 0,27.64559 -3.28026,50.05677 -33.57489,50.05677 -30.29463,0 -33.57489,-22.41118 -33.57489,-50.05677 0,-27.64559 5.06082,-50.05677 33.57489,-50.05677 28.51407,0 33.57489,22.41118 33.57489,50.05677 z" />
    <path
       id="path8877"
       style="fill:#fdf6f6;fill-opacity:1;stroke-width:0.278121"
       d="m 730.37735,584.36294 c 0,12.0481 -1.99998,21.81502 -20.47077,21.81502 -18.47078,0 -20.47077,-9.76692 -20.47077,-21.81502 0,-12.0481 3.08561,-21.81502 20.47077,-21.81502 17.38516,0 20.47077,9.76692 20.47077,21.81502 z" />
  </g>
</g>
<g
   id="layer7"
   transform="translate(-220.99117,-363.51138)">
  <path
     style="fill:#0c5460"
     d="m 601.41715,742.36969 c 23.5603,0 75.06985,-53.86788 1.64214,-53.86929 -73.42771,-10e-4 -25.20245,53.86929 -1.64214,53.86929 z"
     id="path625" />
  <path
     style="fill:#13889b"
     d="m 383.77148,388.41797 c -26.9488,0 -45.10742,34.0293 -45.10742,34.0293 15.05832,11.78992 44.2657,20.33541 45.67774,20.74414 1.41429,-0.40084 30.67102,-8.7826 45.79492,-20.48829 0,0 -17.96959,-34.13082 -44.91797,-34.28124 -0.2406,-0.001 -0.48067,0.003 -0.72266,0.0137 -0.24192,-0.012 -0.484,-0.0176 -0.72461,-0.0176 z"
     id="path366"
     transform="translate(217.21994,277.47098)"
     class="UnoptimicedTransforms" />
  <ellipse
     style="fill:#abdee5"
     id="path681"
     cx="603.05933"
     cy="680.19476"
     rx="19.201323"
     ry="8.3056622" />
</g>
<g
   id="layer9"
   transform="translate(-221.44972,-351.26508)">
  <path
     style="fill:none;stroke:#000000;stroke-width:8.7;stroke-dasharray:none;stroke-opacity:1"
     id="path1753"
     d="m 362.72392,286.6546 c 0,53.62883 -30.69398,97.10358 -68.55693,97.10358 -37.86294,0 -68.55692,-43.47475 -68.55692,-97.10358 0,-53.62882 30.69398,-97.10357 68.55692,-97.10357 37.86295,0 68.55693,43.47475 68.55693,97.10357 z m 50.78413,-0.11444 c 0.24171,53.62828 31.13132,96.96425 68.99388,96.7936 37.86256,-0.17065 68.36028,-43.7833 68.11857,-97.41158 -0.24171,-53.62828 -31.13132,-96.96426 -68.99388,-96.7936 -37.86256,0.17065 -68.36028,43.7833 -68.11857,97.41158 z"
     class="UnoptimicedTransforms"
     transform="translate(213.48388,327.48326)" />
  <path
     style="fill:none;stroke:#000000;stroke-width:11.6;stroke-dasharray:none;stroke-opacity:1"
     d="m 585.11669,607.77437 c 17.77958,-4.30927 18.40116,-4.16175 33.2324,-0.21158"
     id="path1933" />
</g>
</svg>
