<?xml version="1.0" encoding="UTF-8" standalone="no"?>
<svg
   version="1.1"
   viewBox="0 0 768 768"
   width="768"
   height="768"
   id="svg141"
   sodipodi:docname="OwlbyMaster.svg"
   inkscape:version="1.2.2 (b0a84865, 2022-12-01)"
   inkscape:export-filename="../owlby/public/rlean_rightowlby.svg"
   inkscape:export-xdpi="96"
   inkscape:export-ydpi="96"
   xmlns:inkscape="http://www.inkscape.org/namespaces/inkscape"
   xmlns:sodipodi="http://sodipodi.sourceforge.net/DTD/sodipodi-0.dtd"
   xmlns="http://www.w3.org/2000/svg"
   xmlns:svg="http://www.w3.org/2000/svg"
   xmlns:rdf="http://www.w3.org/1999/02/22-rdf-syntax-ns#"
   xmlns:cc="http://creativecommons.org/ns#"
   xmlns:dc="http://purl.org/dc/elements/1.1/"><defs
   id="defs145">
  <inkscape:path-effect
     effect="mirror_symmetry"
     start_point="387.83909,163.72823"
     end_point="388.94457,654.27901"
     center_point="388.39183,409.00362"
     id="path-effect1807"
     is_visible="true"
     lpeversion="1.2"
     lpesatellites=""
     mode="free"
     discard_orig_path="false"
     fuse_paths="false"
     oposite_fuse="false"
     split_items="false"
     split_open="false"
     link_styles="false" />
  <inkscape:path-effect
     effect="mirror_symmetry"
     start_point="248.47733,314.67829"
     end_point="248.47733,473.38049"
     center_point="248.47733,394.02939"
     id="path-effect1671"
     is_visible="true"
     lpeversion="1.2"
     lpesatellites=""
     mode="free"
     discard_orig_path="false"
     fuse_paths="false"
     oposite_fuse="false"
     split_items="false"
     split_open="false"
     link_styles="false" />
  <inkscape:path-effect
     effect="mirror_symmetry"
     start_point="385.13281,160.08788"
     end_point="383.76367,650.63671"
     center_point="384.44824,405.3623"
     id="path-effect623"
     is_visible="true"
     lpeversion="1.2"
     lpesatellites=""
     mode="free"
     discard_orig_path="false"
     fuse_paths="true"
     oposite_fuse="false"
     split_items="false"
     split_open="false"
     link_styles="false" />
  <inkscape:path-effect
     effect="mirror_symmetry"
     start_point="383.88842,88.428672"
     end_point="384.74615,740.84465"
     center_point="384.31728,414.63666"
     id="path-effect8883"
     is_visible="true"
     lpeversion="1.2"
     lpesatellites=""
     mode="free"
     discard_orig_path="false"
     fuse_paths="true"
     oposite_fuse="false"
     split_items="false"
     split_open="false"
     link_styles="false" />
  <inkscape:path-effect
     effect="mirror_symmetry"
     start_point="385.26473,140.88839"
     end_point="385.26473,396.25975"
     center_point="385.26473,268.57407"
     id="path-effect8879"
     is_visible="true"
     lpeversion="1.2"
     lpesatellites=""
     mode="free"
     discard_orig_path="false"
     fuse_paths="true"
     oposite_fuse="false"
     split_items="false"
     split_open="false"
     link_styles="false" />
</defs>
<sodipodi:namedview
   id="namedview143"
   pagecolor="#ffffff"
   bordercolor="#000000"
   borderopacity="0.25"
   inkscape:showpageshadow="false"
   inkscape:pageopacity="0"
   inkscape:pagecheckerboard="false"
   inkscape:deskcolor="#d1d1d1"
   showgrid="false"
   inkscape:zoom="0.7857314"
   inkscape:cx="284.44835"
   inkscape:cy="391.35511"
   inkscape:window-width="1710"
   inkscape:window-height="970"
   inkscape:window-x="0"
   inkscape:window-y="43"
   inkscape:window-maximized="0"
   inkscape:current-layer="layer3"
   shape-rendering="crispEdges"
   showborder="false"
   borderlayer="false" />
<style
   id="style132">svg {background-color: white; }</style>



&quot;
<metadata
   id="metadata1">
Created by https://svgstud.io and licensed under CC-BY-SA 4.0 license. Please attribute https://svgstud.io
</metadata>
<metadata
   id="prompt">
simple flat shaded owl character, fun playful and warm
</metadata>
<metadata
   id="version">
7
</metadata>
<metadata
   id="metadata2">
  <rdf:RDF>
    <cc:Work
       rdf:about="">
      <cc:license
         rdf:resource="http://creativecommons.org/licenses/by-sa/4.0/" />
      <dc:creator>
        <cc:Agent>
          <dc:title>https://svgstud.io</dc:title>
        </cc:Agent>
      </dc:creator>
    </cc:Work>
    <cc:License
       rdf:about="http://creativecommons.org/licenses/by-sa/4.0/">
      <cc:permits
         rdf:resource="http://creativecommons.org/ns#Reproduction" />
      <cc:permits
         rdf:resource="http://creativecommons.org/ns#Distribution" />
      <cc:requires
         rdf:resource="http://creativecommons.org/ns#Notice" />
      <cc:requires
         rdf:resource="http://creativecommons.org/ns#Attribution" />
      <cc:permits
         rdf:resource="http://creativecommons.org/ns#DerivativeWorks" />
      <cc:requires
         rdf:resource="http://creativecommons.org/ns#ShareAlike" />
    </cc:License>
  </rdf:RDF>
</metadata>
<metadata
   id="uid">
405f90eaef92161534f7b7a890fe2b381b67cd809bd959b26db2f5fa8c051c8a
</metadata>
<g
   inkscape:groupmode="layer"
   id="layer8"
   inkscape:label="feet"
   transform="translate(-221.44972,-351.26508)">
  <path
     id="rect1113"
     style="fill:#fea75f"
     d="m 388.7038,932.28737 34.16216,22.91486 c 7.84093,5.25945 9.91916,15.80594 4.65973,23.64688 l -10e-6,-10e-6 c -5.25942,7.84091 -15.80593,9.91918 -23.64684,4.65967 l -34.16216,-22.91485 c -7.84093,-5.25941 -9.91918,-15.80591 -4.65975,-23.6468 l 2e-5,-4e-5 c 5.25942,-7.84091 15.80592,-9.91915 23.64685,-4.65971 z m 42.3746,-39.58997 11.0298,7.39844 -39.42642,58.77806 -11.02981,-7.39842 z" />
  <path
     style="fill:#fea75f"
     id="path1470"
     width="13.281315"
     height="70.776443"
     x="647.47101"
     y="949.32471"
     sodipodi:type="rect"
     d="m 647.47101,949.32471 h 13.28131 v 70.77649 h -13.28131 z" />
  <path
     style="fill:#fea75f"
     id="path1472"
     width="75.220497"
     height="34.084839"
     x="617.29138"
     y="1005.8081"
     ry="17.042406"
     sodipodi:type="rect"
     d="m 634.33379,1005.8081 h 41.13568 c 9.4415,0 17.04241,7.6009 17.04241,17.0424 v 0 c 0,9.4415 -7.60091,17.0424 -17.04241,17.0424 h -41.13568 c -9.4415,0 -17.04241,-7.6009 -17.04241,-17.0424 v 0 c 0,-9.4415 7.60091,-17.0424 17.04241,-17.0424 z" />
</g>
<g
   inkscape:groupmode="layer"
   id="layer4"
   inkscape:label="body"
   transform="translate(-221.44972,-351.26508)">
  <path
     id="path628"
     style="fill:#86cfda;stroke-width:1.11785"
     d="m 504.39258,139.66016 c -29.73982,0.65964 -70.35894,19.93901 -120.41016,20.42187 -66.73641,-0.46834 -116.79398,-34.39775 -146.50586,-13.10351 -59.20247,42.42987 -59.66797,120.48631 -59.66797,208.63867 0,132.67612 8.44864,295.60396 206.35743,295.01758 0.15358,-0.003 0.30743,-0.006 0.46093,-0.01 0.15352,0.003 0.30735,0.005 0.46094,0.008 197.90965,0.066 205.93089,-162.88098 205.58203,-295.55664 -0.23178,-88.15205 -0.90297,-166.20836 -60.2168,-208.48242 -7.44194,-5.30401 -16.14727,-7.15348 -26.06054,-6.93359 z"
     sodipodi:nodetypes="csscc"
     inkscape:path-effect="#path-effect8883"
     inkscape:original-d="M 384.1669,650.63496 C 186.25811,651.22134 177.80907,488.29422 177.80907,355.6181 c 0,-88.15236 0.46595,-166.2101 59.66842,-208.63997 29.90183,-21.43037 80.4096,13.07253 147.78716,13.10962 314.16717,-42.94464 186.68222,486.9651 -1.09775,490.54721 z"
     class="UnoptimicedTransforms"
     transform="rotate(12.403506,-910.32865,1532.9213)" />
  <path
     style="fill:#86cfda"
     d="m 42.3975,293.65491 c 0,0 3.517983,-184.16524 9.573763,-220.499877 6.05577,-36.334637 157.289967,61.057947 157.289967,61.057947 m 245.29593,159.44193 c 0,0 -3.51798,-184.16524 -9.57376,-220.499877 -6.05577,-36.334637 -157.28997,61.057947 -157.28997,61.057947"
     id="path790"
     inkscape:transform-center-x="271.54619"
     inkscape:transform-center-y="-51.458483"
     sodipodi:nodetypes="csc"
     transform="rotate(12.403506,-1089.12,2143.9126)"
     inkscape:path-effect="#path-effect1671"
     inkscape:original-d="m 42.3975,293.65491 c 0,0 3.517983,-184.16524 9.573763,-220.499877 6.05577,-36.334637 157.289967,61.057947 157.289967,61.057947"
     class="UnoptimicedTransforms" />
</g>
<g
   inkscape:groupmode="layer"
   id="layer6"
   inkscape:label="wings"
   transform="translate(-221.44972,-351.26508)">
  <path
     style="fill:#13889b"
     d="m 772.41395,827.6668 c 0,0 58.86794,18.1413 122.9145,-11.1798 C 959.2382,787.22851 1022.2751,633.81062 980.89967,582.18967 924.3602,555.31704 833.23969,656.11748 810.33578,691.86869 784.18284,732.87012 772.41395,827.6668 772.41395,827.6668 Z"
     id="path945"
     sodipodi:nodetypes="csccc"
     inkscape:label="path945" />
  <path
     style="fill:#13889b"
     d="m 384.17319,760.70151 c 0,0 -58.39635,-19.6063 -93.31139,-80.78332 -34.84046,-61.04637 3.45716,-222.42788 67.17636,-240.21867 61.59861,11.15624 61.96251,125.94098 59.70978,168.33982 -2.67658,48.55853 -33.57475,152.66217 -33.57475,152.66217 z"
     id="path1003"
     sodipodi:nodetypes="csccc"
     inkscape:label="path945" />
</g>
<path
   id="path734"
   style="fill:#abdee5;stroke:none;stroke-width:1;stroke-dasharray:none;stroke-opacity:1"
   d="m 260.08594,158.44922 c -7.97144,2.33242 -11.65785,15.71821 -7.00586,37.74219 -14.03979,-16.64545 -27.19216,-17.19667 -32.1211,-14.55274 -6.46186,3.46621 1.50627,14.12129 8.45313,37.50195 -26.89971,1.42627 -15.40556,48.69829 -12.71094,73.37305 3.62364,33.18183 8.84854,76.36881 37.98633,92.65235 38.48342,21.50629 91.10583,-21.05622 130.57812,-21.50586 39.4723,0.44964 92.09276,43.01215 130.57618,21.50586 29.13779,-16.28354 34.36268,-59.47052 37.98632,-92.65235 2.69462,-24.67476 14.18878,-71.94678 -12.71093,-73.37305 6.94686,-23.38066 14.91498,-34.03574 8.45312,-37.50195 -4.92894,-2.64393 -18.0813,-2.09271 -32.12109,14.55274 4.65199,-22.02398 0.96558,-35.40977 -7.00586,-37.74219 -7.97134,-2.33239 -20.4039,39.58179 -125.17774,41.8418 -104.77383,-2.26001 -117.20834,-44.17419 -125.17968,-41.8418 z"
   sodipodi:nodetypes="cscaazzzc"
   inkscape:original-d="m 253.07928,196.19147 c -14.03979,-16.64545 -27.19082,-17.19618 -32.11976,-14.55225 -6.46186,3.46621 1.50511,14.12163 8.45197,37.5023 -26.89971,1.42627 -15.40534,48.69675 -12.71072,73.37151 3.62364,33.18183 8.84842,76.36919 37.98621,92.65273 38.68575,21.61937 91.65918,-21.50476 131.19925,-21.50867 39.54006,-0.004 104.15983,-161.1063 -0.6176,-163.36535 -104.77743,-2.25905 -117.21156,-44.17526 -125.183,-41.84284 -7.97144,2.33242 -11.65834,15.71859 -7.00635,37.74257 z"
   inkscape:path-effect="#path-effect8879"
   class="UnoptimicedTransforms"
   transform="rotate(12.403506,595.21089,338.33947)" />
<g
   inkscape:groupmode="layer"
   id="layer5"
   inkscape:label="face"
   transform="translate(-221.44972,-351.26508)">
  <g
     inkscape:groupmode="layer"
     id="layer2"
     inkscape:label="left_eye">
    <path
       id="path1061"
       style="fill:#fdf6f6;fill-opacity:1;stroke-width:0.7969"
       d="m 579.01498,584.07718 c -8.52601,38.7672 -20.30522,69.12374 -65.25885,59.23715 -44.95364,-9.88658 -42.90946,-42.38412 -34.38344,-81.15132 8.52601,-38.76721 22.94736,-68.54266 65.25885,-59.23716 42.31148,9.3055 42.90945,42.38412 34.38344,81.15133 z"
       sodipodi:nodetypes="szzzs" />
    <path
       id="path8758"
       style="fill:#000000;fill-opacity:1;stroke-width:0.539545"
       d="m 561.98506,580.33181 c -5.93814,27.00032 -13.95565,48.18382 -43.54317,41.67668 -29.58753,-6.50713 -27.97741,-29.0998 -22.03928,-56.10012 5.93814,-27.00032 15.69465,-47.80136 43.54317,-41.67668 27.84853,6.12468 27.97742,29.09981 22.03928,56.10012 z"
       sodipodi:nodetypes="szzzs" />
    <path
       id="path8756"
       style="fill:#fdf6f6;fill-opacity:1;stroke-width:0.278121"
       d="m 568.05125,552.74925 c -2.58788,11.76689 -6.63906,20.87625 -24.67873,16.90882 -18.03965,-3.96743 -17.89507,-13.93597 -15.3072,-25.70286 2.58787,-11.76689 7.69935,-20.64306 24.67872,-16.90882 16.97938,3.73425 17.89508,13.93597 15.30721,25.70286 z"
       sodipodi:nodetypes="szzzs"
       inkscape:label="path8756" />
  </g>
  <g
     inkscape:groupmode="layer"
     id="layer3"
     inkscape:label="right_eye">
    <path
       id="path8873"
       style="fill:#fdf6f6;fill-opacity:1;stroke-width:0.7969"
       d="m 763.67523,627.78005 c -8.52601,38.7672 -20.30521,69.12374 -65.25885,59.23715 -44.95363,-9.88658 -42.90945,-42.38412 -34.38344,-81.15132 8.52601,-38.76721 22.94737,-68.54266 65.25886,-59.23716 42.31148,9.3055 42.90944,42.38412 34.38343,81.15133 z"
       sodipodi:nodetypes="szzzs" />
    <path
       id="path8875"
       style="fill:#000000;fill-opacity:1;stroke-width:0.539545"
       d="m 746.64532,624.03469 c -5.93814,27.00031 -13.95565,48.18381 -43.54318,41.67668 -29.58752,-6.50714 -27.97741,-29.09981 -22.03927,-56.10013 5.93814,-27.00032 15.69464,-47.80136 43.54317,-41.67668 27.84853,6.12468 27.97741,29.09981 22.03928,56.10013 z"
       sodipodi:nodetypes="szzzs" />
    <path
       id="path8877"
       style="fill:#fdf6f6;fill-opacity:1;stroke-width:0.278121"
       d="m 752.71151,596.45212 c -2.58788,11.76689 -6.63906,20.87626 -24.67873,16.90882 -18.03965,-3.96743 -17.89508,-13.93597 -15.3072,-25.70286 2.58787,-11.76689 7.69934,-20.64306 24.67872,-16.90882 16.97938,3.73425 17.89508,13.93598 15.30721,25.70286 z"
       sodipodi:nodetypes="szzzs"
       inkscape:label="path8756" />
  </g>
</g>
<g
   inkscape:groupmode="layer"
   id="layer7"
   inkscape:label="mouth"
   transform="translate(-220.99117,-363.51138)">
  <path
     style="fill:#0c5460"
     d="m 595.44202,723.45517 c 23.01038,5.06064 84.88821,-36.48592 13.17467,-52.25921 -71.71363,-15.77289 -36.18507,47.19857 -13.17467,52.25921 z"
     id="path625"
     sodipodi:nodetypes="zzz" />
  <path
     style="fill:#13889b"
     d="m 383.77148,388.41797 c -26.9488,0 -45.10742,34.0293 -45.10742,34.0293 15.05832,11.78992 44.2657,20.33541 45.67774,20.74414 1.41429,-0.40084 30.67102,-8.7826 45.79492,-20.48829 0,0 -17.96959,-34.13082 -44.91797,-34.28124 -0.2406,-0.001 -0.48067,0.003 -0.72266,0.0137 -0.24192,-0.012 -0.484,-0.0176 -0.72461,-0.0176 z"
     id="path366"
     sodipodi:nodetypes="sccs"
     transform="rotate(12.403506,-699.86768,1566.1707)"
     inkscape:original-d="m 383.77164,388.41822 c 22.26459,0 50.60582,52.07796 0.62415,54.78771 0,0 -30.29764,-8.67507 -45.73138,-20.75893 0,0 18.15843,-34.02878 45.10723,-34.02878 z"
     inkscape:path-effect="#path-effect623"
     class="UnoptimicedTransforms" />
  <ellipse
     style="fill:#abdee5"
     id="path681"
     cx="738.58069"
     cy="516.49615"
     rx="19.201323"
     ry="8.3056622"
     transform="rotate(12.403506)" />
</g>
<g
   inkscape:groupmode="layer"
   id="layer9"
   inkscape:label="glasses"
   transform="translate(-221.44972,-351.26508)">
  <path
     style="fill:none;stroke:#000000;stroke-width:8.7;stroke-dasharray:none;stroke-opacity:1"
     id="path1753"
     inkscape:path-effect="#path-effect1807"
     sodipodi:type="arc"
     sodipodi:cx="294.16699"
     sodipodi:cy="286.6546"
     sodipodi:rx="68.556923"
     sodipodi:ry="97.103577"
     d="m 362.72392,286.6546 c 0,53.62883 -30.69398,97.10358 -68.55693,97.10358 -37.86294,0 -68.55692,-43.47475 -68.55692,-97.10358 0,-53.62882 30.69398,-97.10357 68.55692,-97.10357 37.86295,0 68.55693,43.47475 68.55693,97.10357 z m 50.78413,-0.11444 c 0.24171,53.62828 31.13132,96.96425 68.99388,96.7936 37.86256,-0.17065 68.36028,-43.7833 68.11857,-97.41158 -0.24171,-53.62828 -31.13132,-96.96426 -68.99388,-96.7936 -37.86256,0.17065 -68.36028,43.7833 -68.11857,97.41158 z"
     class="UnoptimicedTransforms"
     transform="rotate(12.403506,-927.66095,1511.7276)" />
  <path
     style="fill:none;stroke:#000000;stroke-width:11.6;stroke-dasharray:none;stroke-opacity:1"
     d="m 605.81269,588.11583 c 18.2902,-0.38972 18.86559,-0.11213 32.50218,6.93152"
     id="path1933"
     sodipodi:nodetypes="cc" />
</g>
</svg>
