<?xml version="1.0" encoding="UTF-8" standalone="no"?>
<svg
   version="1.1"
   viewBox="0 0 768 768"
   width="768"
   height="768"
   id="svg141"
   sodipodi:docname="OwlbyMaster.svg"
   inkscape:version="1.2.2 (b0a84865, 2022-12-01)"
   inkscape:export-filename="../owlby/public/icon.svg"
   inkscape:export-xdpi="96"
   inkscape:export-ydpi="96"
   xmlns:inkscape="http://www.inkscape.org/namespaces/inkscape"
   xmlns:sodipodi="http://sodipodi.sourceforge.net/DTD/sodipodi-0.dtd"
   xmlns="http://www.w3.org/2000/svg"
   xmlns:svg="http://www.w3.org/2000/svg"
   xmlns:rdf="http://www.w3.org/1999/02/22-rdf-syntax-ns#"
   xmlns:cc="http://creativecommons.org/ns#"
   xmlns:dc="http://purl.org/dc/elements/1.1/"><defs
   id="defs145">
  <inkscape:path-effect
     effect="mirror_symmetry"
     start_point="387.83909,163.72823"
     end_point="388.94457,654.27901"
     center_point="388.39183,409.00362"
     id="path-effect1807"
     is_visible="true"
     lpeversion="1.2"
     lpesatellites=""
     mode="free"
     discard_orig_path="false"
     fuse_paths="false"
     oposite_fuse="false"
     split_items="false"
     split_open="false"
     link_styles="false" />
  <inkscape:path-effect
     effect="mirror_symmetry"
     start_point="248.47733,314.67829"
     end_point="248.47733,473.38049"
     center_point="248.47733,394.02939"
     id="path-effect1671"
     is_visible="true"
     lpeversion="1.2"
     lpesatellites=""
     mode="free"
     discard_orig_path="false"
     fuse_paths="false"
     oposite_fuse="false"
     split_items="false"
     split_open="false"
     link_styles="false" />
  <inkscape:path-effect
     effect="mirror_symmetry"
     start_point="385.13281,160.08788"
     end_point="383.76367,650.63671"
     center_point="384.44824,405.3623"
     id="path-effect1115"
     is_visible="true"
     lpeversion="1.2"
     lpesatellites=""
     mode="free"
     discard_orig_path="false"
     fuse_paths="false"
     oposite_fuse="false"
     split_items="false"
     split_open="false"
     link_styles="false" />
  <inkscape:path-effect
     effect="mirror_symmetry"
     start_point="374.59792,179.23342"
     end_point="373.22878,669.78225"
     center_point="373.91335,424.50784"
     id="path-effect1003"
     is_visible="true"
     lpeversion="1.2"
     lpesatellites=""
     mode="free"
     discard_orig_path="false"
     fuse_paths="false"
     oposite_fuse="false"
     split_items="false"
     split_open="false"
     link_styles="false" />
  <inkscape:path-effect
     effect="mirror_symmetry"
     start_point="384.74615,375.02516"
     end_point="384.74615,667.27694"
     center_point="384.74615,521.15105"
     id="path-effect947"
     is_visible="true"
     lpeversion="1.2"
     lpesatellites=""
     mode="free"
     discard_orig_path="false"
     fuse_paths="false"
     oposite_fuse="false"
     split_items="false"
     split_open="false"
     link_styles="false" />
  <inkscape:path-effect
     effect="mirror_symmetry"
     start_point="383.76367,625.54959"
     end_point="383.76367,675.72384"
     center_point="383.76367,650.63672"
     id="path-effect627"
     is_visible="true"
     lpeversion="1.2"
     lpesatellites=""
     mode="free"
     discard_orig_path="false"
     fuse_paths="false"
     oposite_fuse="false"
     split_items="false"
     split_open="false"
     link_styles="false" />
  <inkscape:path-effect
     effect="mirror_symmetry"
     start_point="385.13281,160.08788"
     end_point="383.76367,650.63671"
     center_point="384.44824,405.3623"
     id="path-effect623"
     is_visible="true"
     lpeversion="1.2"
     lpesatellites=""
     mode="free"
     discard_orig_path="false"
     fuse_paths="true"
     oposite_fuse="false"
     split_items="false"
     split_open="false"
     link_styles="false" />
  <inkscape:path-effect
     effect="mirror_symmetry"
     start_point="385.13281,160.08789"
     end_point="383.99414,568.07812"
     center_point="384.56348,364.08301"
     id="path-effect9027"
     is_visible="true"
     lpeversion="1.2"
     lpesatellites=""
     mode="free"
     discard_orig_path="false"
     fuse_paths="true"
     oposite_fuse="false"
     split_items="false"
     split_open="false"
     link_styles="false" />
  <inkscape:path-effect
     effect="mirror_symmetry"
     start_point="385.13281,160.08789"
     end_point="384,565.28116"
     center_point="384.56641,362.68453"
     id="path-effect9023"
     is_visible="true"
     lpeversion="1.2"
     lpesatellites=""
     mode="free"
     discard_orig_path="false"
     fuse_paths="false"
     oposite_fuse="false"
     split_items="false"
     split_open="false"
     link_styles="false" />
  <inkscape:path-effect
     effect="mirror_symmetry"
     start_point="385.13281,160.08789"
     end_point="384,565.28116"
     center_point="384.56641,362.68453"
     id="path-effect9017"
     is_visible="true"
     lpeversion="1.2"
     lpesatellites=""
     mode="free"
     discard_orig_path="false"
     fuse_paths="false"
     oposite_fuse="false"
     split_items="false"
     split_open="false"
     link_styles="false" />
  <inkscape:path-effect
     effect="mirror_symmetry"
     start_point="383.88842,88.428673"
     end_point="384.74615,740.84465"
     center_point="384.31728,414.63666"
     id="path-effect8883"
     is_visible="true"
     lpeversion="1.2"
     lpesatellites=""
     mode="free"
     discard_orig_path="false"
     fuse_paths="true"
     oposite_fuse="false"
     split_items="false"
     split_open="false"
     link_styles="false" />
  <inkscape:path-effect
     effect="mirror_symmetry"
     start_point="249.85356,86.167924"
     end_point="248.58891,367.40409"
     center_point="249.22123,226.78601"
     id="path-effect8881"
     is_visible="true"
     lpeversion="1.2"
     lpesatellites=""
     mode="free"
     discard_orig_path="false"
     fuse_paths="false"
     oposite_fuse="false"
     split_items="false"
     split_open="false"
     link_styles="false" />
  <inkscape:path-effect
     effect="mirror_symmetry"
     start_point="385.26473,140.88839"
     end_point="385.26473,396.25975"
     center_point="385.26473,268.57407"
     id="path-effect8879"
     is_visible="true"
     lpeversion="1.2"
     lpesatellites=""
     mode="free"
     discard_orig_path="false"
     fuse_paths="true"
     oposite_fuse="false"
     split_items="false"
     split_open="false"
     link_styles="false" />
</defs>
<sodipodi:namedview
   id="namedview143"
   pagecolor="#000000"
   bordercolor="#000000"
   borderopacity="0.25"
   inkscape:showpageshadow="false"
   inkscape:pageopacity="0"
   inkscape:pagecheckerboard="false"
   inkscape:deskcolor="#d1d1d1"
   showgrid="false"
   inkscape:zoom="0.7857314"
   inkscape:cx="284.44835"
   inkscape:cy="391.35511"
   inkscape:window-width="1710"
   inkscape:window-height="970"
   inkscape:window-x="0"
   inkscape:window-y="43"
   inkscape:window-maximized="0"
   inkscape:current-layer="layer3"
   shape-rendering="crispEdges"
   showborder="false"
   borderlayer="false" />
<style
   id="style132">svg {background-color: white; }</style>



&quot;
<metadata
   id="metadata1">
Created by https://svgstud.io and licensed under CC-BY-SA 4.0 license. Please attribute https://svgstud.io
</metadata>
<metadata
   id="prompt">
simple flat shaded owl character, fun playful and warm
</metadata>
<metadata
   id="version">
7
</metadata>
<metadata
   id="metadata2">
  <rdf:RDF>
    <cc:Work
       rdf:about="">
      <cc:license
         rdf:resource="http://creativecommons.org/licenses/by-sa/4.0/" />
      <dc:creator>
        <cc:Agent>
          <dc:title>https://svgstud.io</dc:title>
        </cc:Agent>
      </dc:creator>
    </cc:Work>
    <cc:License
       rdf:about="http://creativecommons.org/licenses/by-sa/4.0/">
      <cc:permits
         rdf:resource="http://creativecommons.org/ns#Reproduction" />
      <cc:permits
         rdf:resource="http://creativecommons.org/ns#Distribution" />
      <cc:requires
         rdf:resource="http://creativecommons.org/ns#Notice" />
      <cc:requires
         rdf:resource="http://creativecommons.org/ns#Attribution" />
      <cc:permits
         rdf:resource="http://creativecommons.org/ns#DerivativeWorks" />
      <cc:requires
         rdf:resource="http://creativecommons.org/ns#ShareAlike" />
    </cc:License>
  </rdf:RDF>
</metadata>
<metadata
   id="uid">
405f90eaef92161534f7b7a890fe2b381b67cd809bd959b26db2f5fa8c051c8a
</metadata>
<g
   inkscape:groupmode="layer"
   id="layer8"
   inkscape:label="feet"
   transform="translate(-221.44972,-351.26508)">
  <path
     style="fill:#fea75f"
     id="rect1001"
     width="13.281315"
     height="70.776443"
     x="314.00989"
     y="644.87469"
     inkscape:path-effect="#path-effect1003"
     class="UnoptimicedTransforms"
     d="m 314.00989,644.87469 h 13.28131 v 70.77645 h -13.28131 z m 118.57589,0.33095 -13.2811,-0.0741 -0.39508,70.77534 13.28111,0.0741 z"
     sodipodi:type="rect"
     transform="translate(228.16651,304.12015)" />
  <path
     style="fill:#fea75f"
     id="rect1113"
     width="75.220497"
     height="34.084839"
     x="294.36514"
     y="682.21265"
     ry="17.042406"
     inkscape:path-effect="#path-effect1115"
     class="UnoptimicedTransforms"
     d="m 311.40755,682.21265 h 41.13568 c 9.4415,0 17.04241,7.60091 17.04241,17.0424 v 3e-5 c 0,9.44149 -7.60091,17.04241 -17.04241,17.04241 h -41.13568 c -9.44149,0 -17.04241,-7.60092 -17.04241,-17.04241 v -3e-5 c 0,-9.44149 7.60092,-17.0424 17.04241,-17.0424 z m 144.53486,0.4034 -41.13505,-0.22962 c -9.44134,-0.0527 -17.08457,7.50566 -17.13727,16.94701 l 0,2e-5 c -0.0527,9.44135 7.50566,17.08457 16.94701,17.13728 l 41.13504,0.22962 c 9.44135,0.0527 17.08457,-7.50567 17.13728,-16.94701 l 0,-3e-5 c 0.0527,-9.44135 -7.50567,-17.08457 -16.94701,-17.13727 z"
     sodipodi:type="rect"
     transform="translate(217.63162,323.26569)" />
</g>
<g
   inkscape:groupmode="layer"
   id="layer4"
   inkscape:label="body"
   transform="translate(-221.44972,-351.26508)">
  <path
     id="path628"
     style="fill:#86cfda;stroke-width:1.11785"
     d="m 504.39258,139.66016 c -29.73982,0.65964 -70.35894,19.93901 -120.41016,20.42187 -66.73641,-0.46834 -116.79398,-34.39775 -146.50586,-13.10351 -59.20247,42.42987 -59.66797,120.48631 -59.66797,208.63867 0,132.67612 8.44864,295.60396 206.35743,295.01758 0.15358,-0.003 0.30743,-0.006 0.46093,-0.01 0.15352,0.003 0.30735,0.005 0.46094,0.008 197.90965,0.066 205.93089,-162.88098 205.58203,-295.55664 -0.23178,-88.15205 -0.90297,-166.20836 -60.2168,-208.48242 -7.44194,-5.30401 -16.14727,-7.15348 -26.06054,-6.93359 z"
     sodipodi:nodetypes="csscc"
     inkscape:path-effect="#path-effect8883"
     inkscape:original-d="M 384.1669,650.63496 C 186.25811,651.22134 177.80907,488.29422 177.80907,355.6181 c 0,-88.15236 0.46595,-166.2101 59.66842,-208.63997 29.90183,-21.43037 80.4096,13.07253 147.78716,13.10962 314.16717,-42.94464 186.68222,486.9651 -1.09775,490.54721 z"
     class="UnoptimicedTransforms"
     transform="translate(217.63162,323.26569)" />
  <path
     style="fill:#86cfda"
     d="m 42.3975,293.65491 c 0,0 3.517983,-184.16524 9.573763,-220.499877 6.05577,-36.334637 157.289967,61.057947 157.289967,61.057947 m 245.29593,159.44193 c 0,0 -3.51798,-184.16524 -9.57376,-220.499877 -6.05577,-36.334637 -157.28997,61.057947 -157.28997,61.057947"
     id="path790"
     inkscape:transform-center-x="271.29866"
     inkscape:transform-center-y="4.8446189"
     sodipodi:nodetypes="csc"
     transform="translate(353.04271,347.40812)"
     inkscape:path-effect="#path-effect1671"
     inkscape:original-d="m 42.3975,293.65491 c 0,0 3.517983,-184.16524 9.573763,-220.499877 6.05577,-36.334637 157.289967,61.057947 157.289967,61.057947"
     class="UnoptimicedTransforms" />
</g>
<g
   inkscape:groupmode="layer"
   id="layer1"
   inkscape:label="Layer 1"
   transform="translate(-221.44972,-351.26508)" />
<g
   inkscape:groupmode="layer"
   id="layer6"
   inkscape:label="wings"
   transform="translate(-221.44972,-351.26508)">
  <path
     style="fill:#13889b"
     d="m 177.80859,317.79735 c 0,0 61.24467,6.60542 108.48528,58.85494 47.13972,52.13793 44.39995,217.9788 -14.01061,249.04091 -62.55715,2.33524 -87.56776,-109.69216 -94.47467,-151.58526 -7.81603,-48.00004 0,-156.31059 0,-156.31059 z m 413.87512,0 c 0,0 -61.24467,6.60542 -108.48528,58.85494 -47.13972,52.13793 -44.39995,217.9788 14.01061,249.04091 62.55715,2.33524 87.56776,-109.69216 94.47467,-151.58526 7.81603,-48.00004 0,-156.31059 0,-156.31059 z"
     id="path945"
     sodipodi:nodetypes="csccc"
     inkscape:path-effect="#path-effect947"
     inkscape:original-d="m 177.80859,317.79735 c 0,0 61.24467,6.60542 108.48528,58.85494 47.13972,52.13793 44.39995,217.9788 -14.01061,249.04091 -62.55715,2.33524 -87.56776,-109.69216 -94.47467,-151.58526 -7.81603,-48.00004 0,-156.31059 0,-156.31059 z"
     class="UnoptimicedTransforms"
     inkscape:label="path945"
     transform="translate(217.63162,323.26569)" />
</g>
<path
   id="path734"
   style="fill:#abdee5;stroke:none;stroke-width:1;stroke-dasharray:none;stroke-opacity:1"
   d="m 260.08594,158.44922 c -7.97144,2.33242 -11.65785,15.71821 -7.00586,37.74219 -14.03979,-16.64545 -27.19216,-17.19667 -32.1211,-14.55274 -6.46186,3.46621 1.50627,14.12129 8.45313,37.50195 -26.89971,1.42627 -15.40556,48.69829 -12.71094,73.37305 3.62364,33.18183 8.84854,76.36881 37.98633,92.65235 38.48342,21.50629 91.10583,-21.05622 130.57812,-21.50586 39.4723,0.44964 92.09276,43.01215 130.57618,21.50586 29.13779,-16.28354 34.36268,-59.47052 37.98632,-92.65235 2.69462,-24.67476 14.18878,-71.94678 -12.71093,-73.37305 6.94686,-23.38066 14.91498,-34.03574 8.45312,-37.50195 -4.92894,-2.64393 -18.0813,-2.09271 -32.12109,14.55274 4.65199,-22.02398 0.96558,-35.40977 -7.00586,-37.74219 -7.97134,-2.33239 -20.4039,39.58179 -125.17774,41.8418 -104.77383,-2.26001 -117.20834,-44.17419 -125.17968,-41.8418 z"
   sodipodi:nodetypes="cscaazzzc"
   inkscape:original-d="m 253.07928,196.19147 c -14.03979,-16.64545 -27.19082,-17.19618 -32.11976,-14.55225 -6.46186,3.46621 1.50511,14.12163 8.45197,37.5023 -26.89971,1.42627 -15.40534,48.69675 -12.71072,73.37151 3.62364,33.18183 8.84842,76.36919 37.98621,92.65273 38.68575,21.61937 91.65918,-21.50476 131.19925,-21.50867 39.54006,-0.004 104.15983,-161.1063 -0.6176,-163.36535 -104.77743,-2.25905 -117.21156,-44.17526 -125.183,-41.84284 -7.97144,2.33242 -11.65834,15.71859 -7.00635,37.74257 z"
   inkscape:path-effect="#path-effect8879"
   class="UnoptimicedTransforms"
   transform="translate(-3.8180981,-27.999394)" />
<g
   inkscape:groupmode="layer"
   id="layer5"
   inkscape:label="face"
   transform="translate(-221.44972,-351.26508)">
  <g
     inkscape:groupmode="layer"
     id="layer2"
     inkscape:label="left_eye">
    <path
       id="path1061"
       style="fill:#fdf6f6;fill-opacity:1;stroke-width:0.7969"
       d="m 558.07697,609.586 c 0,39.69369 -4.98383,71.87179 -51.0118,71.87179 -46.02797,0 -51.01181,-32.1781 -51.01181,-71.87179 0,-39.69369 7.68913,-71.87179 51.01181,-71.87179 43.32267,0 51.0118,32.1781 51.0118,71.87179 z"
       sodipodi:nodetypes="szzzs" />
    <path
       id="path8758"
       style="fill:#000000;fill-opacity:1;stroke-width:0.539545"
       d="m 540.64006,609.586 c 0,27.64559 -3.28026,50.05677 -33.57489,50.05677 -30.29463,0 -33.57489,-22.41118 -33.57489,-50.05677 0,-27.64559 5.06082,-50.05677 33.57489,-50.05677 28.51407,0 33.57489,22.41118 33.57489,50.05677 z"
       sodipodi:nodetypes="szzzs" />
    <path
       id="path8756"
       style="fill:#fdf6f6;fill-opacity:1;stroke-width:0.278121"
       d="m 540.64006,581.34425 c 0,12.0481 -1.99998,21.81502 -20.47077,21.81502 -18.47078,0 -20.47077,-9.76692 -20.47077,-21.81502 0,-12.0481 3.08561,-21.81502 20.47077,-21.81502 17.38516,0 20.47077,9.76692 20.47077,21.81502 z"
       sodipodi:nodetypes="szzzs"
       inkscape:label="path8756" />
  </g>
  <g
     inkscape:groupmode="layer"
     id="layer3"
     inkscape:label="right_eye">
    <path
       id="path8873"
       style="fill:#fdf6f6;fill-opacity:1;stroke-width:0.7969"
       d="m 747.81426,612.60469 c 0,39.69369 -4.98383,71.87179 -51.0118,71.87179 -46.02797,0 -51.01181,-32.1781 -51.01181,-71.87179 0,-39.69369 7.68913,-71.87179 51.01181,-71.87179 43.32267,0 51.0118,32.1781 51.0118,71.87179 z"
       sodipodi:nodetypes="szzzs" />
    <path
       id="path8875"
       style="fill:#000000;fill-opacity:1;stroke-width:0.539545"
       d="m 730.37735,612.60469 c 0,27.64559 -3.28026,50.05677 -33.57489,50.05677 -30.29463,0 -33.57489,-22.41118 -33.57489,-50.05677 0,-27.64559 5.06082,-50.05677 33.57489,-50.05677 28.51407,0 33.57489,22.41118 33.57489,50.05677 z"
       sodipodi:nodetypes="szzzs" />
    <path
       id="path8877"
       style="fill:#fdf6f6;fill-opacity:1;stroke-width:0.278121"
       d="m 730.37735,584.36294 c 0,12.0481 -1.99998,21.81502 -20.47077,21.81502 -18.47078,0 -20.47077,-9.76692 -20.47077,-21.81502 0,-12.0481 3.08561,-21.81502 20.47077,-21.81502 17.38516,0 20.47077,9.76692 20.47077,21.81502 z"
       sodipodi:nodetypes="szzzs"
       inkscape:label="path8756" />
  </g>
</g>
<g
   inkscape:groupmode="layer"
   id="layer7"
   inkscape:label="mouth"
   transform="translate(-220.99117,-363.51138)">
  <path
     style="fill:#0c5460"
     d="m 601.41715,742.36969 c 23.5603,0 75.06985,-53.86788 1.64214,-53.86929 -73.42771,-10e-4 -25.20245,53.86929 -1.64214,53.86929 z"
     id="path625"
     sodipodi:nodetypes="zzz" />
  <path
     style="fill:#13889b"
     d="m 383.77148,388.41797 c -26.9488,0 -45.10742,34.0293 -45.10742,34.0293 15.05832,11.78992 44.2657,20.33541 45.67774,20.74414 1.41429,-0.40085 30.67102,-8.7826 45.79492,-20.48829 0,10e-6 -17.96959,-34.13082 -44.91797,-34.28124 -0.2406,-0.001 -0.48067,0.003 -0.72266,0.0137 -0.24192,-0.012 -0.484,-0.0176 -0.72461,-0.0176 z"
     id="path366"
     sodipodi:nodetypes="sccs"
     transform="translate(217.21994,277.47098)"
     inkscape:original-d="m 383.77164,388.41822 c 22.26459,0 50.60582,52.07796 0.62415,54.78771 0,0 -30.29764,-8.67507 -45.73138,-20.75893 0,0 18.15843,-34.02878 45.10723,-34.02878 z"
     inkscape:path-effect="#path-effect623"
     class="UnoptimicedTransforms" />
  <ellipse
     style="fill:#abdee5"
     id="path681"
     cx="603.05933"
     cy="680.19476"
     rx="19.201323"
     ry="8.3056622" />
</g>
<g
   inkscape:groupmode="layer"
   id="layer9"
   inkscape:label="glasses"
   transform="translate(-221.44972,-351.26508)">
  <path
     style="fill:none;stroke:#000000;stroke-width:8.7;stroke-dasharray:none;stroke-opacity:1"
     id="path1753"
     inkscape:path-effect="#path-effect1807"
     sodipodi:type="arc"
     sodipodi:cx="294.16699"
     sodipodi:cy="286.6546"
     sodipodi:rx="68.556923"
     sodipodi:ry="97.103577"
     d="m 362.72392,286.6546 c 0,53.62883 -30.69398,97.10358 -68.55693,97.10358 -37.86294,0 -68.55692,-43.47475 -68.55692,-97.10358 0,-53.62882 30.69398,-97.10357 68.55692,-97.10357 37.86295,0 68.55693,43.47475 68.55693,97.10357 z m 50.78413,-0.11444 c 0.24171,53.62828 31.13132,96.96425 68.99388,96.7936 37.86256,-0.17065 68.36028,-43.7833 68.11857,-97.41158 -0.24171,-53.62828 -31.13132,-96.96426 -68.99388,-96.7936 -37.86256,0.17065 -68.36028,43.7833 -68.11857,97.41158 z"
     class="UnoptimicedTransforms"
     transform="translate(213.48388,327.48326)" />
  <path
     style="fill:none;stroke:#000000;stroke-width:11.6;stroke-dasharray:none;stroke-opacity:1"
     d="m 585.11669,607.77437 c 17.77958,-4.30927 18.40116,-4.16175 33.2324,-0.21158"
     id="path1933"
     sodipodi:nodetypes="cc" />
</g>
</svg>
